<?xml version="1.0" standalone="no"?>
<!DOCTYPE svg PUBLIC "-//W3C//DTD SVG 20010904//EN"
 "http://www.w3.org/TR/2001/REC-SVG-20010904/DTD/svg10.dtd">
<svg version="1.0" xmlns="http://www.w3.org/2000/svg"
 width="640.000000pt" height="640.000000pt" viewBox="0 0 640.000000 640.000000"
 preserveAspectRatio="xMidYMid meet">
<metadata>
Created by potrace 1.14, written by Peter Selinger 2001-2017
</metadata>
<g transform="translate(0.000000,640.000000) scale(0.100000,-0.100000)"
fill="#000000" stroke="none">
<path d="M3309 5445 c-3 -2 -59 -5 -124 -5 -106 -1 -126 -4 -172 -26 -116 -55
-174 -198 -122 -295 7 -13 12 -26 11 -29 -4 -12 42 -62 78 -86 51 -34 97 -44
200 -43 47 0 94 0 105 -1 11 0 36 0 55 0 29 0 38 -5 54 -32 21 -38 69 -126
134 -248 25 -47 79 -146 119 -220 50 -93 69 -136 61 -141 -7 -4 -16 -5 -20 -3
-5 3 -66 5 -136 5 -70 -1 -161 -1 -202 -1 -41 0 -95 0 -120 -1 -25 0 -49 -1
-55 0 -5 0 -57 0 -115 0 -58 1 -145 1 -195 2 -49 1 -96 1 -102 0 -28 -2 -43
-2 -168 -2 -223 1 -279 1 -321 1 -41 0 -62 14 -88 59 -6 10 -36 53 -66 96 -30
43 -59 85 -65 94 -5 9 -13 18 -16 21 -3 3 -24 33 -47 66 -53 80 -129 131 -203
139 -49 5 -269 8 -294 4 -5 -1 -13 -1 -17 0 -6 1 -67 1 -153 0 -11 0 -45 0
-75 0 -87 0 -116 -5 -160 -28 -85 -44 -125 -111 -125 -210 0 -78 19 -123 72
-174 37 -36 153 -86 153 -66 0 6 4 8 9 5 4 -3 46 -6 92 -6 148 0 233 0 291 0
47 0 59 -3 67 -19 6 -11 17 -25 24 -33 7 -7 51 -68 99 -135 l85 -122 -111
-223 c-61 -123 -115 -226 -119 -229 -5 -3 -8 -9 -8 -13 1 -3 -5 -19 -14 -35
-13 -27 -18 -29 -47 -21 -90 24 -340 33 -468 17 -51 -6 -185 -39 -220 -54 -8
-3 -17 -7 -20 -7 -22 -4 -108 -42 -121 -52 -8 -8 -21 -14 -28 -14 -7 0 -25 -8
-39 -18 -15 -10 -34 -21 -42 -24 -50 -18 -236 -178 -320 -274 -62 -71 -180
-261 -180 -289 0 -7 -3 -15 -7 -17 -18 -7 -72 -185 -96 -311 -15 -80 -16 -333
-2 -407 3 -19 8 -44 10 -55 20 -110 85 -281 147 -384 21 -34 38 -67 38 -72 0
-5 4 -9 8 -9 4 0 15 -12 24 -28 9 -15 31 -43 48 -62 17 -19 47 -52 65 -73 26
-30 117 -109 190 -165 30 -24 168 -102 221 -125 167 -74 308 -102 514 -102
147 1 218 8 320 35 19 5 40 10 45 11 25 4 142 52 208 85 198 100 361 243 487
429 80 118 163 304 185 416 3 13 8 38 11 54 3 17 7 37 9 45 2 8 4 21 4 27 1 9
19 13 54 13 28 0 86 0 127 0 41 0 95 0 120 1 25 0 52 1 60 0 133 -5 189 2 245
31 50 26 74 54 145 175 44 76 300 509 351 593 69 116 219 373 219 375 0 2 14
24 30 48 17 25 30 48 30 51 0 4 8 19 19 34 10 15 46 76 81 135 34 59 64 106
65 105 3 -3 41 -74 100 -183 87 -161 98 -181 108 -193 8 -10 -10 -32 -69 -91
-115 -113 -186 -207 -248 -324 -29 -56 -85 -191 -92 -222 -2 -5 -5 -19 -8 -30
-31 -133 -30 -127 -42 -240 -7 -71 -7 -57 -1 -170 5 -80 9 -120 22 -190 20
-110 85 -281 147 -384 21 -34 38 -67 38 -72 0 -5 4 -9 8 -9 4 0 15 -12 24 -28
9 -15 31 -43 48 -62 17 -19 47 -52 65 -73 26 -30 117 -109 190 -165 30 -24
168 -102 221 -125 96 -42 226 -79 334 -95 59 -9 314 -8 365 1 36 7 102 19 115
22 23 5 98 27 110 32 8 3 20 7 25 9 58 19 85 30 85 36 0 5 7 8 15 8 19 0 94
42 185 104 134 92 182 138 330 323 22 27 90 144 90 155 0 6 6 19 14 27 10 13
48 99 52 121 0 3 4 12 7 20 17 41 40 140 55 230 9 57 8 322 -1 375 -14 73 -38
170 -47 187 -6 10 -10 25 -10 33 0 28 -95 219 -147 296 -204 301 -529 508
-873 556 -104 14 -373 7 -462 -13 -10 -2 -28 -6 -40 -9 -13 -2 -34 -7 -48 -10
-28 -6 -27 -7 -91 111 -23 44 -65 122 -94 174 -58 106 -106 194 -173 320 -25
47 -48 90 -52 95 -4 6 -33 60 -65 120 -32 61 -61 115 -65 120 -7 10 -58 103
-114 209 -14 27 -31 55 -37 62 -6 8 -8 14 -4 14 4 0 3 6 -3 13 -11 13 -76 127
-95 167 -6 14 -16 28 -22 32 -5 4 -6 8 -1 8 5 0 4 6 -2 13 -10 12 -35 56 -75
132 -12 22 -28 48 -36 58 -8 9 -11 17 -8 17 13 0 -97 177 -128 207 -53 50
-130 85 -199 90 -75 5 -148 4 -154 -2 -3 -3 -10 0 -17 5 -7 5 -14 8 -16 5z
m-599 -1605 c19 3 49 3 65 0 17 -3 44 -3 60 0 17 4 39 4 49 0 11 -3 38 -4 60
0 23 3 55 3 71 0 17 -3 44 -3 60 0 17 4 39 4 49 0 11 -3 38 -4 60 0 23 3 55 3
71 0 17 -3 44 -3 60 0 17 4 39 4 49 0 11 -3 38 -4 60 0 23 3 55 3 72 0 16 -4
38 -4 47 -1 31 11 107 0 107 -15 0 -8 -4 -14 -10 -14 -5 0 -10 -5 -10 -11 0
-6 -9 -24 -21 -40 -11 -16 -17 -29 -12 -29 4 0 3 -4 -3 -8 -6 -4 -35 -49 -65
-100 -30 -51 -67 -114 -82 -140 -15 -26 -35 -62 -44 -79 -9 -18 -20 -33 -25
-33 -4 0 -8 -5 -8 -12 0 -6 -26 -54 -58 -107 -32 -53 -76 -126 -97 -163 -22
-38 -42 -68 -46 -68 -4 0 -17 16 -29 35 -12 20 -27 41 -34 48 -6 6 -36 47 -66
91 -30 43 -62 86 -70 96 -8 9 -19 24 -25 33 -5 8 -53 75 -105 147 -52 73 -99
140 -105 149 -5 9 -12 18 -15 21 -11 9 -140 189 -140 194 0 8 44 12 70 6 14
-4 41 -4 60 0z m-485 -336 c11 -15 35 -47 53 -71 17 -24 32 -48 32 -53 0 -6 4
-10 8 -10 4 0 16 -13 25 -30 10 -16 23 -35 30 -42 7 -7 32 -42 57 -78 24 -36
58 -83 75 -106 37 -49 45 -60 147 -204 45 -63 86 -116 90 -118 4 -2 8 -10 8
-17 0 -7 3 -15 8 -17 11 -5 112 -147 112 -158 0 -6 4 -10 9 -10 5 0 12 -7 15
-16 5 -12 -4 -15 -52 -15 -31 1 -64 0 -72 0 -8 0 -44 0 -80 0 -36 1 -104 0
-153 -1 -48 -2 -87 -1 -87 2 0 3 -27 3 -61 0 -33 -3 -63 -2 -65 2 -3 5 -9 6
-14 3 -8 -5 -202 -9 -225 -4 -5 1 -13 1 -18 0 -10 -2 -210 -3 -222 -1 -5 1
-45 2 -87 3 -45 1 -78 6 -78 12 1 6 112 232 247 502 272 544 243 503 298 427z
m-905 -549 c4 -3 -49 -116 -118 -252 -69 -137 -130 -270 -137 -298 -30 -128
54 -276 178 -310 4 -2 8 -3 10 -5 5 -5 87 -9 177 -10 52 0 136 -1 185 -1 50
-1 96 -1 103 0 73 6 262 0 262 -8 0 -18 -32 -99 -66 -168 -80 -159 -287 -325
-446 -357 -13 -3 -45 -9 -73 -15 -27 -5 -95 -8 -150 -6 -89 4 -134 12 -225 42
-41 13 -170 85 -170 94 0 5 -5 9 -11 9 -17 0 -123 110 -164 170 -48 70 -89
163 -95 212 0 4 -7 28 -15 53 -13 45 -14 216 -1 280 16 77 71 200 121 271 33
46 142 152 187 181 39 25 129 72 153 79 96 31 271 54 295 39z m3982 -18 c324
-88 541 -376 533 -707 -2 -58 -6 -118 -9 -135 -10 -45 -37 -124 -52 -154 -8
-14 -14 -32 -14 -38 0 -7 -4 -13 -8 -13 -5 0 -14 -12 -21 -27 -20 -43 -111
-146 -170 -192 -69 -53 -177 -106 -261 -128 -66 -17 -246 -24 -305 -11 -16 4
-46 10 -65 14 -44 8 -220 92 -220 105 0 5 -6 9 -13 9 -14 0 -127 110 -154 150
-9 14 -20 27 -23 30 -13 11 -79 158 -95 210 -23 75 -27 255 -8 345 8 38 25 94
39 123 13 29 24 57 24 62 0 6 4 10 8 10 5 0 14 12 20 26 16 34 65 94 77 94 6
0 23 -26 40 -58 16 -31 64 -120 106 -197 42 -77 97 -180 124 -230 98 -183 139
-217 260 -219 87 -1 150 27 193 88 63 90 66 180 7 291 -20 39 -40 75 -44 80
-4 6 -33 57 -63 115 -31 58 -64 121 -75 140 -11 20 -37 68 -58 108 -20 40 -41
75 -46 78 -5 3 -7 9 -4 14 3 5 1 11 -5 15 -6 4 -8 10 -5 15 9 14 224 4 287
-13z"/>
</g>
</svg>
